#Comment line ignore any data following # character 
#Hierarchical Translation and Rotation (.htr) file 
[Header]	
#Header keywords are followed by a single value 
FileType HTR		#Single word string
DataType HTRS		#Translation followed by rotation and scale data
FileVersion 1		#integer
NumSegments 64		#integer
NumFrames 3		#integer
DataFrameRate 30		#integer, data frame rate in this file
EulerRotationOrder ZYX
CalibrationUnits mm
RotationUnits Degrees
GlobalAxisofGravity Y
BoneLengthAxis Y
ScaleFactor 1.00
[SegmentNames&Hierarchy]
#CHILD	PARENT
Pinger_Root GLOBAL
Pelvis Pinger_Root
L_Hip Pelvis
R_Hip Pelvis
Rear_Leg01 Pelvis
Spine1 Pelvis
L_Leg01 L_Hip
L_Leg02 L_Leg01
L_Leg03 L_Leg02
L_Foot L_Leg03
L_Toe1_01 L_Foot
L_Toe2_01 L_Foot
L_Toe3_01 L_Foot
planeAlignerLeft L_Foot
L_Toe1_02 L_Toe1_01
L_Toe1_03 L_Toe1_02
L_Toe2_02 L_Toe2_01
L_Toe2_03 L_Toe2_02
L_Toe3_02 L_Toe3_01
L_Toe3_03 L_Toe3_02
planeLockWeightLeft planeAlignerLeft
R_Leg01 R_Hip
R_Leg02 R_Leg01
R_Leg03 R_Leg02
R_Foot R_Leg03
planeAlignerRight R_Foot
R_Toe1_01 R_Foot
R_Toe2_01 R_Foot
R_Toe3_01 R_Foot
planeLockWeightRight planeAlignerRight
R_Toe1_02 R_Toe1_01
R_Toe1_03 R_Toe1_02
R_Toe2_02 R_Toe2_01
R_Toe2_03 R_Toe2_02
R_Toe3_02 R_Toe3_01
R_Toe3_03 R_Toe3_02
Rear_Leg02 Rear_Leg01
Rear_Leg03 Rear_Leg02
Rear_Leg04 Rear_Leg03
Rear_Foot Rear_Leg04
planeAlignerCenter Rear_Foot
Rear_Toe1_01 Rear_Foot
Rear_Toe2_01 Rear_Foot
Rear_Toe3_01 Rear_Foot
planeLockWeightCenter planeAlignerCenter
Rear_Toe1_02 Rear_Toe1_01
Rear_Toe1_03 Rear_Toe1_02
Rear_Toe2_02 Rear_Toe2_01
Rear_Toe2_03 Rear_Toe2_02
Rear_Toe3_02 Rear_Toe3_01
Rear_Toe3_03 Rear_Toe3_02
Back_Bone Spine1
Head Spine1
Motor_Bone Back_Bone
Ping_Mechanism Back_Bone
BN_LookIK Head
bottomMouth Head
L_Mouth01 Head
L_mouthFront Head
mouthGun Head
R_Mouth01 Head
R_mouthFront Head
TopMouth Head
weapon_bone Head
[BasePosition]
#SegmentName Tx, Ty, Tz, Rx, Ry, Rz, BoneLength
Pinger_Root 0.000000 0.000000 0.000000 -90.000000 0.000000 0.000000 10.000000 
Pelvis 0.000000 0.000000 0.000000 0.000000 0.000000 0.000000 10.000000 
L_Hip 0.000000 0.000000 0.000000 0.000000 0.000000 0.000000 10.000000 
R_Hip 0.000000 0.000000 0.000000 0.000000 0.000000 0.000000 10.000000 
Rear_Leg01 0.000000 0.000000 0.000000 0.000000 0.000000 0.000000 10.000000 
Spine1 0.000000 0.000000 0.000000 0.000000 0.000000 0.000000 10.000000 
L_Leg01 0.000000 0.000000 0.000000 0.000000 0.000000 0.000000 10.000000 
L_Leg02 0.000000 0.000000 0.000000 0.000000 0.000000 0.000000 10.000000 
L_Leg03 0.000000 0.000000 0.000000 0.000000 0.000000 0.000000 10.000000 
L_Foot 0.000000 0.000000 0.000000 0.000000 0.000000 0.000000 10.000000 
L_Toe1_01 0.000000 0.000000 0.000000 0.000000 0.000000 0.000000 10.000000 
L_Toe2_01 0.000000 0.000000 0.000000 0.000000 0.000000 0.000000 10.000000 
L_Toe3_01 0.000000 0.000000 0.000000 0.000000 0.000000 0.000000 10.000000 
planeAlignerLeft 0.000000 0.000000 0.000000 0.000000 0.000000 0.000000 10.000000 
L_Toe1_02 0.000000 0.000000 0.000000 0.000000 0.000000 0.000000 10.000000 
L_Toe1_03 0.000000 0.000000 0.000000 0.000000 0.000000 0.000000 10.000000 
L_Toe2_02 0.000000 0.000000 0.000000 0.000000 0.000000 0.000000 10.000000 
L_Toe2_03 0.000000 0.000000 0.000000 0.000000 0.000000 0.000000 10.000000 
L_Toe3_02 0.000000 0.000000 0.000000 0.000000 0.000000 0.000000 10.000000 
L_Toe3_03 0.000000 0.000000 0.000000 0.000000 0.000000 0.000000 10.000000 
planeLockWeightLeft 0.000000 0.000000 0.000000 0.000000 0.000000 0.000000 10.000000 
R_Leg01 0.000000 0.000000 0.000000 0.000000 0.000000 0.000000 10.000000 
R_Leg02 0.000000 0.000000 0.000000 0.000000 0.000000 0.000000 10.000000 
R_Leg03 0.000000 0.000000 0.000000 0.000000 0.000000 0.000000 10.000000 
R_Foot 0.000000 0.000000 0.000000 0.000000 0.000000 0.000000 10.000000 
planeAlignerRight 0.000000 0.000000 0.000000 0.000000 0.000000 0.000000 10.000000 
R_Toe1_01 0.000000 0.000000 0.000000 0.000000 0.000000 0.000000 10.000000 
R_Toe2_01 0.000000 0.000000 0.000000 0.000000 0.000000 0.000000 10.000000 
R_Toe3_01 0.000000 0.000000 0.000000 0.000000 0.000000 0.000000 10.000000 
planeLockWeightRight 0.000000 0.000000 0.000000 0.000000 0.000000 0.000000 10.000000 
R_Toe1_02 0.000000 0.000000 0.000000 0.000000 0.000000 0.000000 10.000000 
R_Toe1_03 0.000000 0.000000 0.000000 0.000000 0.000000 0.000000 10.000000 
R_Toe2_02 0.000000 0.000000 0.000000 0.000000 0.000000 0.000000 10.000000 
R_Toe2_03 0.000000 0.000000 0.000000 0.000000 0.000000 0.000000 10.000000 
R_Toe3_02 0.000000 0.000000 0.000000 0.000000 0.000000 0.000000 10.000000 
R_Toe3_03 0.000000 0.000000 0.000000 0.000000 0.000000 0.000000 10.000000 
Rear_Leg02 0.000000 0.000000 0.000000 0.000000 0.000000 0.000000 10.000000 
Rear_Leg03 0.000000 0.000000 0.000000 0.000000 0.000000 0.000000 10.000000 
Rear_Leg04 0.000000 0.000000 0.000000 0.000000 0.000000 0.000000 10.000000 
Rear_Foot 0.000000 0.000000 0.000000 0.000000 0.000000 0.000000 10.000000 
planeAlignerCenter 0.000000 0.000000 0.000000 0.000000 0.000000 0.000000 10.000000 
Rear_Toe1_01 0.000000 0.000000 0.000000 0.000000 0.000000 0.000000 10.000000 
Rear_Toe2_01 0.000000 0.000000 0.000000 0.000000 0.000000 0.000000 10.000000 
Rear_Toe3_01 0.000000 0.000000 0.000000 0.000000 0.000000 0.000000 10.000000 
planeLockWeightCenter 0.000000 0.000000 0.000000 0.000000 0.000000 0.000000 10.000000 
Rear_Toe1_02 0.000000 0.000000 0.000000 0.000000 0.000000 0.000000 10.000000 
Rear_Toe1_03 0.000000 0.000000 0.000000 0.000000 0.000000 0.000000 10.000000 
Rear_Toe2_02 0.000000 0.000000 0.000000 0.000000 0.000000 0.000000 10.000000 
Rear_Toe2_03 0.000000 0.000000 0.000000 0.000000 0.000000 0.000000 10.000000 
Rear_Toe3_02 0.000000 0.000000 0.000000 0.000000 0.000000 0.000000 10.000000 
Rear_Toe3_03 0.000000 0.000000 0.000000 0.000000 0.000000 0.000000 10.000000 
Back_Bone 0.000000 0.000000 0.000000 0.000000 0.000000 0.000000 10.000000 
Head 0.000000 0.000000 0.000000 0.000000 0.000000 0.000000 10.000000 
Motor_Bone 0.000000 0.000000 0.000000 0.000000 0.000000 0.000000 10.000000 
Ping_Mechanism 0.000000 0.000000 0.000000 0.000000 0.000000 0.000000 10.000000 
BN_LookIK 0.000000 0.000000 0.000000 0.000000 0.000000 0.000000 10.000000 
bottomMouth 0.000000 0.000000 0.000000 0.000000 0.000000 0.000000 10.000000 
L_Mouth01 0.000000 0.000000 0.000000 0.000000 0.000000 0.000000 10.000000 
L_mouthFront 0.000000 0.000000 0.000000 0.000000 0.000000 0.000000 10.000000 
mouthGun 0.000000 0.000000 0.000000 0.000000 0.000000 0.000000 10.000000 
R_Mouth01 0.000000 0.000000 0.000000 0.000000 0.000000 0.000000 10.000000 
R_mouthFront 0.000000 0.000000 0.000000 0.000000 0.000000 0.000000 10.000000 
TopMouth 0.000000 0.000000 0.000000 0.000000 0.000000 0.000000 10.000000 
weapon_bone 0.000000 0.000000 0.000000 0.000000 0.000000 0.000000 10.000000 
#Beginning of Data. Separated by tabs
#Fr	Tx	Ty	Tz	Rx	Ry	Rz	SF
[Pinger_Root]
29 0.000000 0.000000 0.000000 -0.000070 -0.000027 -41.538437 0.000000
30 0.000000 0.000000 0.000000 -0.000070 -0.000028 -43.803810 0.000000
31 0.000000 0.000000 0.000000 -0.000070 -0.000030 -46.083866 0.000000
[Pelvis]
29 -46.950653 294.923523 4468.060059 -118.680588 -85.264175 81.417221 4478.028809
30 35.779812 305.261719 4453.793945 -96.755005 -84.855171 57.266743 4464.386230
31 112.343239 320.634094 4436.797363 -77.317490 -83.614815 34.920372 4449.786133
[L_Hip]
29 5.766392 125.831482 872.656799 85.262062 -71.606216 -157.249420 881.701050
30 5.766392 125.831482 872.656799 73.607651 -67.216255 -143.430817 881.701050
31 5.766392 125.831482 872.656799 64.748428 -60.845585 -132.292480 881.701050
[R_Hip]
29 5.765438 125.836372 -872.654907 37.443928 50.236515 124.860298 881.699829
30 5.765438 125.836372 -872.654907 35.074230 49.393890 121.923424 881.699829
31 5.765438 125.836372 -872.654907 31.474062 48.085529 117.323105 881.699829
[Rear_Leg01]
29 -192.298416 -925.602966 -0.001907 146.246552 24.276741 176.420151 945.367432
30 -192.298416 -925.602966 -0.001907 154.889130 24.020517 176.259888 945.367432
31 -192.298416 -925.602966 -0.001907 161.903580 23.407030 177.727386 945.367432
[Spine1]
29 290.604584 5.007505 0.000477 -4.643604 7.416403 23.202347 290.647736
30 290.604584 5.007505 0.000477 -2.442933 4.108671 22.109739 290.647736
31 290.604584 5.007505 0.000477 0.544451 0.107866 20.814373 290.647736
[L_Leg01]
29 761.932007 -0.002384 -0.069261 33.144299 -11.729684 -21.634045 761.932068
30 761.932007 -0.002384 -0.069261 34.490242 -14.330233 -23.867077 761.932068
31 761.932007 -0.002384 -0.069261 36.492393 -18.257618 -25.458921 761.932068
[L_Leg02]
29 1441.140503 -0.000954 -0.000715 -1.131704 0.507438 -113.650131 1441.140503
30 1441.140503 -0.000954 -0.000715 -1.269038 0.586217 -108.429169 1441.140503
31 1441.140503 -0.000954 -0.000715 -1.398634 0.677165 -103.208313 1441.140503
[L_Leg03]
29 1686.963989 -0.000715 -0.000954 0.043647 -0.010367 98.774612 1686.963989
30 1686.963989 -0.000715 -0.000954 0.047079 -0.013393 96.997147 1686.963989
31 1686.963989 -0.000715 -0.000954 0.061394 -0.012653 94.024094 1686.963989
[L_Foot]
29 3041.570068 -30.715107 11.297464 -29.590996 46.174023 45.846535 3041.746094
30 3041.570068 -30.715107 11.297464 -33.041904 47.840752 42.295616 3041.746094
31 3041.570068 -30.715107 11.297464 -36.468967 49.587326 39.280624 3041.746094
[L_Toe1_01]
29 -188.216690 -224.732346 -21.137953 93.719086 -6.862507 -171.970444 293.899567
30 -188.216690 -224.732346 -21.137953 93.719086 -6.862505 -171.970444 293.899567
31 -188.216690 -224.732346 -21.137953 93.719086 -6.862505 -171.970444 293.899567
[L_Toe2_01]
29 200.746536 -219.926590 148.838394 -90.023987 -26.311703 -52.677628 332.896027
30 200.746536 -219.926590 148.838394 -90.023987 -26.311703 -52.677628 332.896027
31 200.746536 -219.926590 148.838394 -90.023987 -26.311703 -52.677628 332.896027
[L_Toe3_01]
29 188.832520 -219.859131 -191.078659 -99.788055 13.839005 -67.673027 347.140900
30 188.832520 -219.859131 -191.078659 -99.788055 13.839005 -67.673027 347.140900
31 188.832520 -219.859131 -191.078659 -99.788055 13.839008 -67.673027 347.140900
[planeAlignerLeft]
29 32.992683 -593.020752 101.088409 169.306686 -76.298271 89.968506 602.479065
30 32.992905 -593.020691 101.088394 169.306686 -76.298271 89.968506 602.478943
31 32.993118 -593.020691 101.088379 169.306686 -76.298271 89.968506 602.479004
[L_Toe1_02]
29 413.761139 0.000477 0.000000 0.001385 -25.870832 0.001385 413.761139
30 413.761139 0.000477 0.000000 0.001385 -25.865757 0.001385 413.761139
31 413.761139 0.000477 0.000000 0.001385 -25.860680 0.001385 413.761139
[L_Toe1_03]
29 464.317322 0.000358 -0.000089 0.003734 53.359097 0.003734 464.317322
30 464.317322 0.000358 -0.000089 0.003734 53.359097 0.003734 464.317322
31 464.317322 0.000358 -0.000089 0.003734 53.359097 0.003734 464.317322
[L_Toe2_02]
29 342.235809 -0.000477 0.000238 0.001188 -72.402016 0.001188 342.235809
30 342.235809 -0.000477 0.000238 0.001188 -72.402016 0.001188 342.235809
31 342.235809 -0.000477 0.000238 0.001188 -72.402016 0.001188 342.235809
[L_Toe2_03]
29 420.210846 -0.000715 0.000000 0.029090 85.375511 0.029090 420.210846
30 420.210846 -0.000715 0.000000 0.029090 85.375511 0.029090 420.210846
31 420.210846 -0.000715 0.000000 0.029090 85.375511 0.029090 420.210846
[L_Toe3_02]
29 329.270111 0.000954 0.000000 0.001178 -80.480331 0.001178 329.270111
30 329.270111 0.000954 0.000000 0.001178 -80.480331 0.001178 329.270111
31 329.270111 0.000954 0.000000 0.001178 -80.480331 0.001178 329.270111
[L_Toe3_03]
29 439.137451 -0.001907 0.000954 -179.995956 78.605698 -179.992447 439.137451
30 439.137451 -0.001907 0.000954 -179.995956 78.605698 -179.992447 439.137451
31 439.137451 -0.001907 0.000954 -179.995956 78.605698 -179.992447 439.137451
[planeLockWeightLeft]
29 999.999084 0.098267 0.076145 -0.011826 -0.004376 0.005620 999.999084
30 999.999084 0.098267 0.076145 -0.011826 -0.004376 0.005620 999.999084
31 999.999023 0.098267 0.076144 -0.011826 -0.004376 0.005620 999.999023
[R_Leg01]
29 761.455627 -0.001907 -0.000358 122.148949 -3.144844 29.136000 761.455688
30 761.455627 -0.001907 -0.000358 123.231972 -3.942860 28.915125 761.455688
31 761.455627 -0.001907 -0.000358 124.927261 -3.178400 29.860928 761.455688
[R_Leg02]
29 1441.140625 0.000000 -0.000238 -0.885240 0.119398 -108.241432 1441.140625
30 1441.140625 0.000000 -0.000238 -0.952278 0.088213 -109.654030 1441.140625
31 1441.140625 0.000000 -0.000238 -0.959323 0.028073 -109.484009 1441.140625
[R_Leg03]
29 1686.963989 0.000954 0.001431 0.025269 -0.009657 116.976524 1686.963989
30 1686.963989 0.000954 0.001431 0.034255 -0.016379 119.866669 1686.963989
31 1686.963989 0.000954 0.001431 0.047215 -0.021313 123.059875 1686.963989
[R_Foot]
29 3041.560059 -30.531288 -11.204481 3.789373 -36.773331 46.875320 3041.734131
30 3041.560059 -30.531288 -11.204481 1.600288 -33.497295 47.325279 3041.734131
31 3041.560059 -30.531288 -11.204481 -0.590415 -29.337343 46.845673 3041.734131
[planeAlignerRight]
29 -126.629639 -468.908325 -365.627228 -30.113943 -65.643379 -70.362419 607.941895
30 -126.627800 -462.734406 -361.924438 -30.390013 -65.958549 -70.109581 600.955078
31 -126.621094 -465.820679 -359.252991 -30.672983 -66.273224 -69.849808 601.734558
[R_Toe1_01]
29 -188.383347 -224.864899 21.052242 70.490135 0.945374 -176.917557 294.101532
30 -188.383347 -224.864899 21.052242 70.799805 0.773549 -177.419601 294.101532
31 -188.383347 -224.864899 21.052242 71.282707 0.687092 -177.265594 294.101532
[R_Toe2_01]
29 200.637817 -220.002121 -148.787384 -85.410469 40.966335 -51.665531 332.857574
30 200.637817 -220.002121 -148.787384 -85.287094 40.818405 -51.199986 332.857574
31 200.637817 -220.002121 -148.787384 -85.713646 40.365505 -51.644756 332.857574
[R_Toe3_01]
29 188.606735 -220.092957 191.126343 -71.662453 -2.306647 -70.789093 347.192566
30 188.606735 -220.092957 191.126343 -71.670067 -2.845409 -70.203865 347.192566
31 188.606735 -220.092957 191.126343 -71.806839 -3.346838 -70.277748 347.192566
[planeLockWeightRight]
29 999.999878 -0.000244 0.075861 -0.011823 -0.004379 -0.000027 999.999878
30 999.999878 -0.000235 0.075863 -0.011823 -0.004379 -0.000027 999.999878
31 999.999817 -0.000227 0.075865 -0.011823 -0.004379 -0.000027 999.999817
[R_Toe1_02]
29 413.762085 0.000477 -0.000119 0.001396 -24.401041 0.001396 413.762085
30 413.762085 0.000477 -0.000119 0.001396 -24.395666 0.001396 413.762085
31 413.762085 0.000477 -0.000119 0.001396 -24.390287 0.001396 413.762085
[R_Toe1_03]
29 464.317810 0.000000 0.001088 0.007501 71.996025 0.007501 464.317810
30 464.317810 0.000000 0.001088 0.007557 72.130653 0.007557 464.317810
31 464.317810 0.000000 0.001088 0.007614 72.265221 0.007614 464.317810
[R_Toe2_02]
29 342.234741 -0.000954 0.000238 0.001192 -69.932968 0.001192 342.234741
30 342.234741 -0.000954 0.000238 0.001191 -70.126350 0.001191 342.234741
31 342.234741 -0.000954 0.000238 0.001191 -70.319664 0.001191 342.234741
[R_Toe2_03]
29 420.210846 0.000715 -0.000268 0.012714 79.406937 0.012714 420.210846
30 420.210846 0.000715 -0.000268 0.013886 80.303345 0.013886 420.210846
31 420.210846 0.000715 -0.000268 0.013668 80.148361 0.013668 420.210846
[R_Toe3_02]
29 329.270355 -0.000477 -0.000954 0.001181 -77.398621 0.001181 329.270355
30 329.270355 -0.000477 -0.000954 0.001180 -77.817497 0.001180 329.270355
31 329.270355 -0.000477 -0.000954 0.001180 -77.793694 0.001180 329.270355
[R_Toe3_03]
29 439.137939 0.000238 0.001431 -179.939240 88.945938 -179.935745 439.137939
30 439.137939 0.000238 0.001431 -179.972885 87.718956 -179.969376 439.137939
31 439.137939 0.000238 0.001431 -179.972961 87.712013 -179.969467 439.137939
[Rear_Leg02]
29 1162.777710 -0.029802 0.005960 -1.923671 2.679247 -151.373123 1162.777710
30 1162.777710 -0.029802 0.005960 -0.498927 0.585985 -161.440674 1162.777710
31 1162.777710 -0.029802 0.005960 3.062954 -2.155882 -168.296280 1162.777710
[Rear_Leg03]
29 607.192505 -0.013351 -0.073195 0.010258 -0.005561 73.285034 607.192505
30 607.192505 -0.013351 -0.073195 0.010134 -0.005784 75.783363 607.192505
31 607.192505 -0.013351 -0.073195 0.010060 -0.005911 77.231911 607.192505
[Rear_Leg04]
29 995.874512 -0.020504 -0.011921 -0.041852 -0.014744 78.548218 995.874573
30 995.874512 -0.020504 -0.011921 -0.042428 -0.019094 85.698967 995.874573
31 995.874512 -0.020504 -0.011921 -0.043184 -0.017317 90.456009 995.874573
[Rear_Foot]
29 3096.176270 -0.067472 -0.041425 108.824486 87.021324 -67.163483 3096.176270
30 3096.176270 -0.067472 -0.041425 8.389113 85.772926 -171.735703 3096.176270
31 3096.176270 -0.067472 -0.041425 -19.993479 79.656532 159.382599 3096.176270
[planeAlignerCenter]
29 116.921730 -61.131874 -769.203979 12.705965 13.531966 -175.696869 780.437378
30 126.409813 -30.749569 -777.377014 12.155069 10.829655 -178.180771 788.187805
31 138.619888 28.813210 -806.124756 11.909662 8.603359 179.959641 818.463684
[Rear_Toe1_01]
29 0.653352 83.966492 -371.173737 9.094972 63.261242 109.104195 380.553192
30 0.653352 83.966492 -371.173737 4.130751 60.993240 100.844460 380.553192
31 0.653352 83.966492 -371.173737 -6.578879 58.955215 86.811661 380.553192
[Rear_Toe2_01]
29 178.200760 -294.826019 -362.060547 -13.896733 60.736462 -89.359497 499.765686
30 178.200760 -294.826019 -362.060547 -14.237087 62.271042 -89.076790 499.765686
31 178.200760 -294.826019 -362.060547 -6.324146 65.084312 -78.343269 499.765686
[Rear_Toe3_01]
29 -153.359680 -308.780914 -362.060852 10.042369 68.747467 -109.346001 499.952881
30 -153.359680 -308.780914 -362.060852 6.549873 69.332756 -112.728798 499.952881
31 -153.359680 -308.780914 -362.060852 10.945107 71.088913 -105.938133 499.952881
[planeLockWeightCenter]
29 55.393234 0.000000 0.076351 -0.011814 -0.004373 -0.000015 55.393288
30 198.250305 0.000000 0.076294 -0.011814 -0.004373 -0.000015 198.250320
31 393.585510 0.000153 0.076294 -0.011814 -0.004373 -0.000015 393.585510
[Rear_Toe1_02]
29 379.707825 0.194073 0.000477 -0.002649 -32.546505 -0.002649 379.707855
30 379.707825 0.194073 0.000477 -0.002650 -32.458920 -0.002650 379.707855
31 379.707825 0.194073 0.000477 -0.003480 -32.987610 0.000183 379.707855
[Rear_Toe1_03]
29 500.129700 0.165701 0.000119 -179.966400 87.931709 -179.969894 500.129761
30 500.129700 0.165701 0.000119 -179.975189 87.144119 -179.978683 500.129761
31 500.129700 0.165701 0.000119 -0.043736 88.551521 -0.047233 500.129761
[Rear_Toe2_02]
29 340.494507 0.000238 -0.000954 0.000000 -89.833313 -0.003880 340.494507
30 340.494507 0.000238 -0.000954 179.998444 -89.215157 179.998444 340.494507
31 340.494507 0.000238 -0.000954 179.998825 -88.595421 179.998825 340.494507
[Rear_Toe2_03]
29 433.103577 0.000000 0.000238 -179.995453 65.953255 -179.999039 433.103546
30 433.103577 0.000000 0.000238 -179.995667 63.901489 -179.999252 433.103546
31 433.103577 0.000000 0.000238 -179.995895 61.066986 -179.999496 433.103546
[Rear_Toe3_02]
29 340.494141 -0.000358 -0.000477 0.001183 -75.328598 0.001183 340.494171
30 340.494141 -0.000358 -0.000477 0.001179 -81.278542 0.001179 340.494171
31 340.494141 -0.000358 -0.000477 0.001174 -87.228371 0.001174 340.494171
[Rear_Toe3_03]
29 433.103577 0.001431 -0.000238 0.012010 78.784721 0.012010 433.103546
30 433.103577 0.001431 -0.000238 0.000000 89.889854 0.003496 433.103546
31 433.103577 0.001431 -0.000238 -179.997284 75.232895 -179.993759 433.103546
[Back_Bone]
29 1312.175781 -701.934692 0.000954 0.000023 -0.000007 -85.606667 1488.125488
30 1312.175781 -701.934692 0.000954 0.000023 -0.000007 -85.606667 1488.125488
31 1312.175781 -701.934692 0.000954 0.000023 -0.000007 -85.606667 1488.125488
[Head]
29 1406.159424 809.709290 0.001431 0.000008 0.000003 7.767519 1622.625488
30 1406.159424 809.709290 0.001431 0.000008 0.000003 7.767519 1622.625488
31 1406.159424 809.709290 0.001431 0.000008 0.000003 7.767519 1622.625488
[Motor_Bone]
29 1158.364380 -417.834747 0.000477 -0.095385 0.076112 -105.915703 1231.419434
30 1158.364380 -417.834747 0.000477 -0.090460 -1.853658 -106.029999 1231.419434
31 1158.364380 -417.834747 0.000477 -0.081670 -3.783408 -106.144615 1231.419434
[Ping_Mechanism]
29 1232.643066 -442.306824 -14.839472 0.000103 -0.000053 82.120995 1309.681030
30 1237.908447 -444.996338 -3.622720 0.000103 -0.000053 82.120995 1315.466553
31 1243.173828 -447.685852 7.594040 0.000103 -0.000053 82.120995 1321.348389
[BN_LookIK]
29 193.241119 1380.371704 -0.002861 0.000000 89.965736 -31.038179 1393.832153
30 193.241119 1380.371704 -0.002861 0.000000 89.965736 -31.038179 1393.832153
31 193.241119 1380.371704 -0.002861 0.000000 89.965736 -31.038179 1393.832153
[bottomMouth]
29 -435.092926 615.759399 -0.000954 -0.000022 0.000016 73.527184 753.966492
30 -435.092926 615.759399 -0.000954 -0.000022 0.000016 73.527184 753.966492
31 -435.092926 615.759399 -0.000954 -0.000022 0.000016 73.527184 753.966492
[L_Mouth01]
29 554.440979 7.658243 838.222046 150.204178 23.759130 109.605339 1005.027161
30 554.440979 7.658243 838.222046 150.204178 23.759130 109.605339 1005.027161
31 554.440979 7.658243 838.222046 150.204178 23.759130 109.605339 1005.027161
[L_mouthFront]
29 551.629089 934.514771 339.150421 0.000081 2.804060 79.119301 1136.941284
30 551.629089 934.514771 339.150421 0.000081 2.804060 79.119301 1136.941284
31 551.629089 934.514771 339.150421 0.000081 2.804060 79.119301 1136.941284
[mouthGun]
29 55.332661 1627.420898 0.000000 0.000023 0.000009 -11.038128 1628.361328
30 55.332661 1627.420898 0.000000 0.000023 0.000009 -11.038128 1628.361328
31 55.332661 1627.420898 0.000000 0.000023 0.000009 -11.038128 1628.361328
[R_Mouth01]
29 554.442383 7.659197 -838.223938 29.795891 -23.759109 109.605331 1005.029541
30 554.442383 7.659197 -838.223938 29.795891 -23.759109 109.605331 1005.029541
31 554.442383 7.659197 -838.223938 29.795891 -23.759109 109.605331 1005.029541
[R_mouthFront]
29 551.629089 934.514282 -339.151367 0.000029 -2.803930 79.119133 1136.941162
30 551.629089 934.514282 -339.151367 0.000029 -2.803930 79.119133 1136.941162
31 551.629089 934.514282 -339.151367 0.000029 -2.803930 79.119133 1136.941162
[TopMouth]
29 461.269867 -56.106091 -0.008583 -0.000059 -0.000268 92.025169 464.669525
30 461.269867 -56.106091 -0.008583 -0.000059 -0.000268 92.025169 464.669525
31 461.269867 -56.106091 -0.008583 -0.000059 -0.000268 92.025169 464.669525
[weapon_bone]
29 -987.239868 1448.372803 0.001431 0.000000 89.965736 -31.038221 1752.833740
30 -987.239868 1448.372803 0.001431 0.000000 89.965736 -31.038221 1752.833740
31 -987.239868 1448.372803 0.001431 0.000000 89.965736 -31.038221 1752.833740
